<?xml version="1.0" standalone="no"?>
<!DOCTYPE svg PUBLIC "-//W3C//DTD SVG 1.1//EN" "http://www.w3.org/Graphics/SVG/1.1/DTD/svg11.dtd" >
<svg xmlns="http://www.w3.org/2000/svg">
<metadata>Generated by IcoMoon</metadata>
<defs>
<font id="icomoon" horiz-adv-x="1024">
<font-face units-per-em="1024" ascent="960" descent="-64" />
<missing-glyph horiz-adv-x="1024" />
<glyph unicode="&#x20;" horiz-adv-x="512" d="" />
<glyph unicode="&#xe900;" glyph-name="triangle-down" d="M256 665.6h512l-256-460.8-256 460.8z" />
<glyph unicode="&#xe901;" glyph-name="chevron-thin-right" d="M678.4 460.8l-365.619 379.904c-13.722 13.824-13.722 36.198 0 50.125 13.722 13.824 35.891 13.824 49.613 0l400.896-404.89c13.722-13.875 13.722-36.301 0-50.125l-400.896-404.89c-13.722-13.875-35.891-13.824-49.613 0-13.722 13.773-13.722 36.198 0 50.125l365.619 379.75z" />
<glyph unicode="&#xe902;" glyph-name="catalog" d="M196.923 786.135h141.776v-141.783h-141.776v141.783zM196.923 502.595h141.776v-141.783h-141.776v141.783zM196.923 218.982h141.776v-141.783h-141.776v141.783zM480.461 786.135h141.776v-141.783h-141.776v141.783zM480.461 502.595h141.776v-141.783h-141.776v141.783zM480.461 218.982h141.776v-141.783h-141.776v141.783zM764.077 786.135h141.776v-141.783h-141.776v141.783zM764.077 502.595h141.776v-141.783h-141.776v141.783zM764.077 218.982h141.776v-141.783h-141.776v141.783z" />
<glyph unicode="&#xe903;" glyph-name="chevron-right" d="M414.165 140.502l256 256c16.683 16.683 16.683 43.691 0 60.331l-256 256c-16.683 16.683-43.691 16.683-60.331 0s-16.683-43.691 0-60.331l225.835-225.835-225.835-225.835c-16.683-16.683-16.683-43.691 0-60.331s43.691-16.683 60.331 0z" />
<glyph unicode="&#xe904;" glyph-name="home" d="M1024 369.556l-512 397.426-512-397.428v162.038l512 397.426 512-397.428zM896 384v-384h-256v256h-256v-256h-256v384l384 288z" />
<glyph unicode="&#xe905;" glyph-name="sort" d="M233.497-54.006c13.33-13.326 34.942-13.326 48.272 0l217.223 217.225c13.33 13.332 13.33 34.946 0 48.271-13.33 13.332-34.942 13.332-48.272 0l-193.087-193.085-193.088 193.085c-13.33 13.332-34.942 13.332-48.272 0-13.33-13.326-13.33-34.939 0-48.271l217.223-217.225zM223.5 925.867v-955.733h68.267v955.733h-68.267zM759.637 950.003c-13.332 13.33-34.946 13.33-48.271 0l-217.225-217.223c-13.33-13.33-13.33-34.942 0-48.271s34.942-13.33 48.272 0l193.085 193.087 193.092-193.087c13.326-13.33 34.939-13.33 48.271 0 13.326 13.33 13.326 34.942 0 48.271l-217.225 217.223zM769.632-29.867v955.733h-68.267v-955.733h68.267z" />
<glyph unicode="&#xe906;" glyph-name="warning" d="M461.575 763.251l-345.123-558.368c-37.289-60.329-10.11-108.884 60.438-108.884h670.194c70.532 0 97.607 48.749 60.438 108.884l-345.123 558.368c-27.776 44.938-72.983 45.045-100.825 0zM491.302 751.267c11.115 17.961 29.171 17.904 40.251 0l352.168-569.043c18.534-29.947 4.67-54.224-30.133-54.224h-684.296c-35.176 0-48.766 24.118-30.135 54.224l352.145 569.043zM512 576c-17.673 0-32-14.497-32-31.905v-192.19c0-17.621 14.204-31.905 32-31.905 17.673 0 32 14.497 32 31.905v192.19c0 17.621-14.204 31.905-32 31.905v0zM512 192c17.673 0 32 14.327 32 32s-14.327 32-32 32c-17.673 0-32-14.327-32-32s14.327-32 32-32v0z" />
<glyph unicode="&#xe907;" glyph-name="category" horiz-adv-x="956" d="M489.456 419.159h422.518c14.37 0 25.859 12.289 25.859 27.649s-11.489 27.649-25.859 27.649h-422.518c-12.067 64.104-65.121 112.643-128.709 112.643s-116.643-48.539-128.71-112.643h-188.085c-14.365 0-25.857-12.289-25.857-27.649s11.492-27.649 25.857-27.649h188.085c12.067-64.104 65.121-112.643 128.71-112.643 63.397 0 116.642 48.334 128.709 112.643zM281.261 446.807c0 46.901 35.625 84.995 79.486 84.995s79.486-38.093 79.486-84.995c0-46.901-35.625-84.995-79.486-84.995s-79.486 38.094-79.486 84.995zM706.239 757.926h205.701c14.37 0 25.859 12.288 25.859 27.649s-11.489 27.649-25.859 27.649h-205.701c-12.070 64.104-65.122 112.643-128.711 112.643s-116.643-48.539-128.709-112.643h-404.899c-14.365 0-25.857-12.288-25.857-27.649s11.492-27.649 25.857-27.649h405.091c12.067-64.104 65.121-112.643 128.71-112.643s116.45 48.539 128.52 112.643zM498.042 785.575c0 46.901 35.625 84.995 79.486 84.995s79.486-38.094 79.486-84.995c0-46.901-35.625-84.995-79.486-84.995s-79.486 38.299-79.486 84.995zM706.273 82.76h205.701c14.37 0 25.859 12.288 25.859 27.648s-11.489 27.648-25.859 27.648h-205.701c-12.070 64.102-65.124 112.647-128.712 112.647s-116.643-48.544-128.71-112.647h-405.090c-14.365 0-25.857-12.288-25.857-27.648s11.492-27.648 25.857-27.648h405.282c12.067-64.102 65.121-112.647 128.709-112.647s116.451 48.34 128.521 112.647zM498.075 110.408c0 46.899 35.626 84.992 79.486 84.992s79.486-38.093 79.486-84.992c0-46.899-35.625-84.992-79.486-84.992s-79.486 38.093-79.486 84.992z" />
<glyph unicode="&#xe908;" glyph-name="more" horiz-adv-x="987" d="M288 379.429c18.186 0 35.628 7.223 48.487 20.085 12.86 12.859 20.084 30.299 20.084 48.486s-7.224 35.628-20.084 48.486c-12.86 12.862-30.301 20.085-48.487 20.085s-35.628-7.223-48.487-20.085c-12.86-12.859-20.084-30.299-20.084-48.486s7.224-35.628 20.084-48.486c12.86-12.862 30.301-20.085 48.487-20.085zM493.714 379.429c18.187 0 35.628 7.223 48.486 20.085 12.862 12.859 20.085 30.299 20.085 48.486s-7.223 35.628-20.085 48.486c-12.859 12.862-30.299 20.085-48.486 20.085s-35.628-7.223-48.486-20.085c-12.862-12.859-20.085-30.299-20.085-48.486s7.223-35.628 20.085-48.486c12.859-12.862 30.299-20.085 48.486-20.085zM768 448c0-18.187-7.223-35.628-20.085-48.486-12.859-12.862-30.299-20.085-48.486-20.085s-35.628 7.223-48.486 20.085c-12.862 12.859-20.085 30.299-20.085 48.486s7.223 35.628 20.085 48.486c12.859 12.862 30.299 20.085 48.486 20.085s35.628-7.223 48.486-20.085c12.862-12.859 20.085-30.299 20.085-48.486zM973.714 448c0-265.099-214.901-480-480-480-265.097 0-480 214.901-480 480 0 265.097 214.903 480 480 480 265.099 0 480-214.903 480-480zM905.143 448c0 227.211-184.218 411.429-411.429 411.429s-411.429-184.217-411.429-411.429c0-227.211 184.217-411.429 411.429-411.429s411.429 184.218 411.429 411.429z" />
<glyph unicode="&#xe909;" glyph-name="stock" horiz-adv-x="922" d="M354.13 661.337c35.413 0 64-28.587 64-64s-28.587-64-64-64c-35.413 0-64 28.587-64 64s28.587 64 64 64zM567.463 362.67c35.413 0 64-28.587 64-64s-28.587-64-64-64c-35.413 0-64 28.587-64 64s28.587 64 64 64zM307.623 234.67l-60.16 60.16 366.507 366.507 60.16-60.16-366.507-366.507zM744.53 838.403l26.027-164.693 149.76-76.373-75.52-149.333 75.947-149.333-151.040-76.373-26.027-164.693-165.973 26.027-118.187-118.187-118.613 119.893-164.693-27.307-26.453 165.973-148.907 75.947 75.947 149.333-75.52 148.053 149.76 77.227 26.027 162.987 165.12-26.88 118.613 119.68 117.76-117.973 165.973 26.027zM806.397 560.217l-110.933 58.453-21.333 123.307-123.733-17.92-89.6 86.613-89.6-86.613-123.733 17.92-21.333-123.307-110.933-58.453 55.467-112.213-55.467-112.213 110.933-58.453 21.333-123.307 123.733 17.92 89.6-86.613 89.6 86.613 123.733-17.92 21.333 123.307 110.933 58.453-55.467 112.213 55.467 112.213z" />
<glyph unicode="&#xe90a;" glyph-name="catalog-menu" horiz-adv-x="1058" d="M273.067 832v-128h-128v128h128zM337.067 64v128c0 16.975-6.743 33.253-18.745 45.254-12.002 12.005-28.281 18.746-45.255 18.746h-128c-16.974 0-33.252-6.741-45.255-18.746-12.002-12.001-18.745-28.279-18.745-45.254v-128c0-16.975 6.743-33.253 18.745-45.254 12.003-12.005 28.281-18.746 45.255-18.746h128c16.974 0 33.252 6.741 45.255 18.746 12.003 12.001 18.745 28.279 18.745 45.254zM337.067 384v128c0 16.975-6.743 33.253-18.745 45.254-12.002 12.005-28.281 18.746-45.255 18.746h-128c-16.974 0-33.252-6.741-45.255-18.746-12.002-12.001-18.745-28.279-18.745-45.254v-128c0-16.975 6.743-33.253 18.745-45.254 12.003-12.005 28.281-18.746 45.255-18.746h128c16.974 0 33.252 6.741 45.255 18.746 12.003 12.001 18.745 28.279 18.745 45.254zM337.067 704v128c0 16.974-6.743 33.252-18.745 45.255s-28.281 18.745-45.255 18.745h-128c-16.974 0-33.252-6.743-45.255-18.745s-18.745-28.281-18.745-45.255v-128c0-16.974 6.743-33.252 18.745-45.255s28.281-18.745 45.255-18.745h128c16.974 0 33.252 6.743 45.255 18.745s18.745 28.281 18.745 45.255zM657.067 64v128c0 16.975-6.741 33.253-18.746 45.254-12.001 12.005-28.279 18.746-45.254 18.746h-128c-16.975 0-33.253-6.741-45.254-18.746-12.005-12.001-18.746-28.279-18.746-45.254v-128c0-16.975 6.741-33.253 18.746-45.254 12.001-12.005 28.279-18.746 45.254-18.746h128c16.975 0 33.253 6.741 45.254 18.746 12.005 12.001 18.746 28.279 18.746 45.254zM657.067 384v128c0 16.975-6.741 33.253-18.746 45.254-12.001 12.005-28.279 18.746-45.254 18.746h-128c-16.975 0-33.253-6.741-45.254-18.746-12.005-12.001-18.746-28.279-18.746-45.254v-128c0-16.975 6.741-33.253 18.746-45.254 12.001-12.005 28.279-18.746 45.254-18.746h128c16.975 0 33.253 6.741 45.254 18.746 12.005 12.001 18.746 28.279 18.746 45.254zM657.067 704v128c0 16.974-6.741 33.252-18.746 45.255-12.001 12.002-28.279 18.745-45.254 18.745h-128c-16.975 0-33.253-6.743-45.254-18.745-12.005-12.003-18.746-28.281-18.746-45.255v-128c0-16.974 6.741-33.252 18.746-45.255 12.001-12.003 28.279-18.745 45.254-18.745h128c16.975 0 33.253 6.743 45.254 18.745 12.005 12.002 18.746 28.281 18.746 45.255zM593.067 832v-128h-128v128h128zM913.067 832v-128h-128v128h128zM273.067 512v-128h-128v128h128zM593.067 512v-128h-128v128h128zM913.067 512h-128v-128h128v128zM273.067 192v-128h-128v128h128zM593.067 192v-128h-128v128h128zM913.067 192v-128h-128v128h128zM785.067 896c-16.975 0-33.253-6.743-45.254-18.745-12.005-12.003-18.746-28.281-18.746-45.255v-128c0-16.974 6.741-33.252 18.746-45.255 12.001-12.003 28.279-18.745 45.254-18.745h128c16.975 0 33.253 6.743 45.254 18.745 12.005 12.002 18.746 28.281 18.746 45.255v128c0 16.974-6.741 33.252-18.746 45.255-12.001 12.002-28.279 18.745-45.254 18.745h-128zM721.067 512c0 16.975 6.741 33.253 18.746 45.254 12.001 12.005 28.279 18.746 45.254 18.746h128c16.975 0 33.253-6.741 45.254-18.746 12.005-12.001 18.746-28.279 18.746-45.254v-128c0-16.975-6.741-33.253-18.746-45.254-12.001-12.005-28.279-18.746-45.254-18.746h-128c-16.975 0-33.253 6.741-45.254 18.746-12.005 12.001-18.746 28.279-18.746 45.254v128zM785.067 256c-16.975 0-33.253-6.741-45.254-18.746-12.005-12.001-18.746-28.279-18.746-45.254v-128c0-16.975 6.741-33.253 18.746-45.254 12.001-12.005 28.279-18.746 45.254-18.746h128c16.975 0 33.253 6.741 45.254 18.746 12.005 12.001 18.746 28.279 18.746 45.254v128c0 16.975-6.741 33.253-18.746 45.254-12.001 12.005-28.279 18.746-45.254 18.746h-128z" />
<glyph unicode="&#xe91e;" glyph-name="mic" d="M480 256c88.366 0 160 71.634 160 160v384c0 88.366-71.634 160-160 160s-160-71.634-160-160v-384c0-88.366 71.636-160 160-160zM704 512v-96c0-123.71-100.29-224-224-224-123.712 0-224 100.29-224 224v96h-64v-96c0-148.238 112.004-270.3 256-286.22v-129.78h-128v-64h320v64h-128v129.78c143.994 15.92 256 137.982 256 286.22v96h-64z" />
<glyph unicode="&#xe93a;" glyph-name="cart" d="M384 32c0-53.019-42.981-96-96-96s-96 42.981-96 96c0 53.019 42.981 96 96 96s96-42.981 96-96zM1024 32c0-53.019-42.981-96-96-96s-96 42.981-96 96c0 53.019 42.981 96 96 96s96-42.981 96-96zM1024 448v384h-768c0 35.346-28.654 64-64 64h-192v-64h128l48.074-412.054c-29.294-23.458-48.074-59.5-48.074-99.946 0-70.696 57.308-128 128-128h768v64h-768c-35.346 0-64 28.654-64 64 0 0.218 0.014 0.436 0.016 0.656l831.984 127.344z" />
<glyph unicode="&#xe942;" glyph-name="phone" d="M704 320c-64-64-64-128-128-128s-128 64-192 128-128 128-128 192 64 64 128 128-128 256-192 256-192-192-192-192c0-128 131.5-387.5 256-512s384-256 512-256c0 0 192 128 192 192s-192 256-256 192z" />
<glyph unicode="&#xe945;" glyph-name="envelop" d="M928 832h-832c-52.8 0-96-43.2-96-96v-640c0-52.8 43.2-96 96-96h832c52.8 0 96 43.2 96 96v640c0 52.8-43.2 96-96 96zM398.74 409.628l-270.74-210.892v501.642l270.74-290.75zM176.38 704h671.24l-335.62-252-335.62 252zM409.288 398.302l102.712-110.302 102.71 110.302 210.554-270.302h-626.528l210.552 270.302zM625.26 409.628l270.74 290.75v-501.642l-270.74 210.892z" />
<glyph unicode="&#xe947;" glyph-name="location" d="M512 960c-176.732 0-320-143.268-320-320 0-320 320-704 320-704s320 384 320 704c0 176.732-143.27 320-320 320zM512 448c-106.040 0-192 85.96-192 192s85.96 192 192 192 192-85.96 192-192-85.96-192-192-192z" />
<glyph unicode="&#xe958;" glyph-name="mobile" d="M736 960h-448c-52.8 0-96-43.2-96-96v-832c0-52.8 43.2-96 96-96h448c52.8 0 96 43.2 96 96v832c0 52.8-43.2 96-96 96zM384 912h256v-32h-256v32zM512 0c-35.346 0-64 28.654-64 64s28.654 64 64 64 64-28.654 64-64-28.654-64-64-64zM768 192h-512v640h512v-640z" />
<glyph unicode="&#xe986;" glyph-name="search" d="M992.262 88.604l-242.552 206.294c-25.074 22.566-51.89 32.926-73.552 31.926 57.256 67.068 91.842 154.078 91.842 249.176 0 212.078-171.922 384-384 384-212.076 0-384-171.922-384-384s171.922-384 384-384c95.098 0 182.108 34.586 249.176 91.844-1-21.662 9.36-48.478 31.926-73.552l206.294-242.552c35.322-39.246 93.022-42.554 128.22-7.356s31.892 92.898-7.354 128.22zM384 320c-141.384 0-256 114.616-256 256s114.616 256 256 256 256-114.616 256-256-114.614-256-256-256z" />
<glyph unicode="&#xe9ac;" glyph-name="bin" d="M128 640v-640c0-35.2 28.8-64 64-64h576c35.2 0 64 28.8 64 64v640h-704zM320 64h-64v448h64v-448zM448 64h-64v448h64v-448zM576 64h-64v448h64v-448zM704 64h-64v448h64v-448zM848 832h-208v80c0 26.4-21.6 48-48 48h-224c-26.4 0-48-21.6-48-48v-80h-208c-26.4 0-48-21.6-48-48v-80h832v80c0 26.4-21.6 48-48 48zM576 832h-192v63.198h192v-63.198z" />
<glyph unicode="&#xea91;" glyph-name="facebook" d="M928 960h-832c-52.8 0-96-43.2-96-96v-832c0-52.8 43.2-96 96-96h416v448h-128v128h128v64c0 105.8 86.2 192 192 192h128v-128h-128c-35.2 0-64-28.8-64-64v-64h192l-32-128h-160v-448h288c52.8 0 96 43.2 96 96v832c0 52.8-43.2 96-96 96z" />
<glyph unicode="&#xea92;" glyph-name="instagram" d="M512 867.8c136.8 0 153-0.6 206.8-3 50-2.2 77-10.6 95-17.6 23.8-9.2 41-20.4 58.8-38.2 18-18 29-35 38.4-58.8 7-18 15.4-45.2 17.6-95 2.4-54 3-70.2 3-206.8s-0.6-153-3-206.8c-2.2-50-10.6-77-17.6-95-9.2-23.8-20.4-41-38.2-58.8-18-18-35-29-58.8-38.4-18-7-45.2-15.4-95-17.6-54-2.4-70.2-3-206.8-3s-153 0.6-206.8 3c-50 2.2-77 10.6-95 17.6-23.8 9.2-41 20.4-58.8 38.2-18 18-29 35-38.4 58.8-7 18-15.4 45.2-17.6 95-2.4 54-3 70.2-3 206.8s0.6 153 3 206.8c2.2 50 10.6 77 17.6 95 9.2 23.8 20.4 41 38.2 58.8 18 18 35 29 58.8 38.4 18 7 45.2 15.4 95 17.6 53.8 2.4 70 3 206.8 3zM512 960c-139 0-156.4-0.6-211-3-54.4-2.4-91.8-11.2-124.2-23.8-33.8-13.2-62.4-30.6-90.8-59.2-28.6-28.4-46-57-59.2-90.6-12.6-32.6-21.4-69.8-23.8-124.2-2.4-54.8-3-72.2-3-211.2s0.6-156.4 3-211c2.4-54.4 11.2-91.8 23.8-124.2 13.2-33.8 30.6-62.4 59.2-90.8 28.4-28.4 57-46 90.6-59 32.6-12.6 69.8-21.4 124.2-23.8 54.6-2.4 72-3 211-3s156.4 0.6 211 3c54.4 2.4 91.8 11.2 124.2 23.8 33.6 13 62.2 30.6 90.6 59s46 57 59 90.6c12.6 32.6 21.4 69.8 23.8 124.2 2.4 54.6 3 72 3 211s-0.6 156.4-3 211c-2.4 54.4-11.2 91.8-23.8 124.2-12.6 34-30 62.6-58.6 91-28.4 28.4-57 46-90.6 59-32.6 12.6-69.8 21.4-124.2 23.8-54.8 2.6-72.2 3.2-211.2 3.2v0zM512 711c-145.2 0-263-117.8-263-263s117.8-263 263-263 263 117.8 263 263c0 145.2-117.8 263-263 263zM512 277.4c-94.2 0-170.6 76.4-170.6 170.6s76.4 170.6 170.6 170.6c94.2 0 170.6-76.4 170.6-170.6s-76.4-170.6-170.6-170.6zM846.8 721.4c0-33.91-27.49-61.4-61.4-61.4s-61.4 27.49-61.4 61.4c0 33.91 27.49 61.4 61.4 61.4s61.4-27.49 61.4-61.4z" />
<glyph unicode="&#xea9d;" glyph-name="youtube" d="M1013.8 652.8c0 0-10 70.6-40.8 101.6-39 40.8-82.6 41-102.6 43.4-143.2 10.4-358.2 10.4-358.2 10.4h-0.4c0 0-215 0-358.2-10.4-20-2.4-63.6-2.6-102.6-43.4-30.8-31-40.6-101.6-40.6-101.6s-10.2-82.8-10.2-165.8v-77.6c0-82.8 10.2-165.8 10.2-165.8s10-70.6 40.6-101.6c39-40.8 90.2-39.4 113-43.8 82-7.8 348.2-10.2 348.2-10.2s215.2 0.4 358.4 10.6c20 2.4 63.6 2.6 102.6 43.4 30.8 31 40.8 101.6 40.8 101.6s10.2 82.8 10.2 165.8v77.6c-0.2 82.8-10.4 165.8-10.4 165.8zM406.2 315.2v287.8l276.6-144.4-276.6-143.4z" />
</font>
</defs>
</svg>
